<svg xmlns="http://www.w3.org/2000/svg" width="17" height="17" viewBox="0 0 280 280">
  <defs>
    <style>
      .cls-1 {
        fill: rgba(240,245,250, 1);
        fill-rule: evenodd;
      }
      #adminmenu li.menu-top:hover .wp-menu-image .cls-1 {

        fill: #00b9eb!important;

    }
    </style>
  </defs>
  <path id="Эллипс_1_копия_6" data-name="Эллипс 1 копия 6" class="cls-1" d="M250,110A140,140,0,1,1,110,250,140,140,0,0,1,250,110ZM134,329a50,50,0,0,1,38.651-18.279,49.29,49.29,0,0,1,49.29,49.29C221.941,369.356,215,386,215,386h0a139.905,139.905,0,0,1-81-57h0Zm14.006,11.71a12.174,12.174,0,1,1,12.174,12.174A12.174,12.174,0,0,1,148.006,340.71Zm30.584,0a12.174,12.174,0,1,1,12.174,12.174A12.173,12.173,0,0,1,178.59,340.71Zm92.046-214.379a92.047,92.047,0,1,0,92.047,92.047A92.046,92.046,0,0,0,270.636,126.331Zm36.522,104.22a12.174,12.174,0,1,1,12.174-12.173A12.174,12.174,0,0,1,307.158,230.551Zm-36.522,0a12.174,12.174,0,1,1,12.174-12.173A12.174,12.174,0,0,1,270.636,230.551Zm-36.521,0a12.174,12.174,0,1,1,12.173-12.173A12.173,12.173,0,0,1,234.115,230.551Z" transform="translate(-110 -110)"/>
</svg>
